<svg height="512" viewBox="0 0 512 512" width="512" xmlns="http://www.w3.org/2000/svg"><g id="Flat"><g fill="#4d5e78"><path d="m408 352v32l-32 72h-32l24-72-8-32"/><path d="m288 352v40l-21.05 64h-32l13.05-64v-40"/><path d="m216 351.33v.67 40l-16 64h-32l8-64-4.02-40.17"/><path d="m458.6 348.27 13.4 35.73-24 72h-32l16-72-24-32"/></g><path d="m488 200v104a48 48 0 0 1 -48 48h-264a48 48 0 0 1 -48-48 47.231 47.231 0 0 1 -44.32-30.93 46.324 46.324 0 0 1 -2.26-8.53l-17.42-104.54h-21.21a18.8 18.8 0 0 1 -18.64-21.19 19.443 19.443 0 0 1 2.69-7.55l21.16-35.26a40 40 0 0 1 40-40h36a40 40 0 0 1 32 16l36 48h216q4.05 0 8 .39a80.027 80.027 0 0 1 72 79.61z" fill="#dbdbd9"/><path d="m488 200v104a48 48 0 0 1 -48 48h-264a48 48 0 0 1 -48-48 47.231 47.231 0 0 1 -44.32-30.93c122.16-8.91 247.31-50.61 332.32-152.68a80.027 80.027 0 0 1 72 79.61z" fill="#cfcfcd"/><path d="m104 96h-56l-21.322 35.536a18.8 18.8 0 0 0 -2.678 9.67 18.794 18.794 0 0 0 18.794 18.794h29.206a32 32 0 0 0 32-32h8a16 16 0 0 0 16-16 16 16 0 0 0 -16-16z" fill="#4d5e78"/><path d="m408 360a56.063 56.063 0 0 1 -56-56 8 8 0 0 1 16 0 40.045 40.045 0 0 0 40 40 8 8 0 0 1 0 16z" fill="#b0b0ae"/><path d="m208 360a8 8 0 0 1 0-16 40.045 40.045 0 0 0 40-40 8 8 0 0 1 16 0 56.063 56.063 0 0 1 -56 56z" fill="#b0b0ae"/></g></svg>