<svg id="icons" height="512" viewBox="0 0 64 64" width="512" xmlns="http://www.w3.org/2000/svg">
    <g>
        <g>
            <g>
                <path  d="M 25 38 c 1.1 0 2 0.9 2 2 c 0 1.1 -0.9 2 -2 2 c -1.1 0 -2 -0.9 -2 -2 c 0 -1.1 0.9 -2 2 -2 z" fill="#ffd2a6" />
            </g>
            <g>
                <path d="M 17 22 c 1.1 0 2 0.9 2 2 c 0 1.1 -0.9 2 -2 2 c -1.1 0 -2 -0.9 -2 -2 c 0 -1.1 0.9 -2 2 -2 z" fill="#ffd2a6" />
            </g>
            <g>
                <path d="M 25 32 h -8 c 4.4 0 8 -3.6 8 -8 s -3.6 -8 -8 -8 h 30 c 4.4 0 8 3.6 8 8 s -3.6 8 -8 8 z" fill="#844747" />
            </g>
            <g>
                <path d="M 17 29 c 2.8 0 5 -2.2 5 -5 s -2.2 -5 -5 -5 s -5 2.2 -5 5 s 2.2 5 5 5 z m 0 -13 c 4.4 0 8 3.6 8 8 s -3.6 8 -8 8 s -8 -3.6 -8 -8 s 3.6 -8 8 -8 z" fill="#ffd2a6" />
            </g>
            <g>
                <path d="M 30 40 c 0 -2.8 -2.2 -5 -5 -5 s -5 2.2 -5 5 c 0 2.8 2.2 5 5 5 s 5 -2.2 5 -5 z m -5 -8 c 4.4 0 8 3.6 8 8 s -3.6 8 -8 8 s -8 -3.6 -8 -8 s 3.6 -8 8 -8 z" fill="#ffd2a6" />
            </g>
            <g>
                <path d="M 9 45 c 2.8 0 5 -2.2 5 -5 c 0 -2.8 -2.2 -5 -5 -5 s -5 2.2 -5 5 c 0 2.8 2.2 5 5 5 z m 0 -13 c 4.4 0 8 3.6 8 8 s -3.6 8 -8 8 s -8 -3.6 -8 -8 s 3.6 -8 8 -8 z" fill="#ffd2a6" />
            </g>
            <g>
                <path d="M 55 32 c 4.4 0 8 3.6 8 8 s -3.6 8 -8 8 h -30 c 4.4 0 8 -3.6 8 -8 s -3.6 -8 -8 -8 h 22 z" fill="#965353" />
            </g>
            <g>
                <path d="M 9 38 c 1.1 0 2 0.9 2 2 c 0 1.1 -0.9 2 -2 2 c -1.1 0 -2 -0.9 -2 -2 c 0 -1.1 0.9 -2 2 -2 z" fill="#ffd2a6" />
            </g>
            <g>
                <path d="M 27 40 c 0 -1.1 -0.9 -2 -2 -2 c -1.1 0 -2 0.9 -2 2 c 0 1.1 0.9 2 2 2 c 1.1 0 2 -0.9 2 -2 z m -2 -5 c 2.8 0 5 2.2 5 5 c 0 2.8 -2.2 5 -5 5 s -5 -2.2 -5 -5 c 0 -2.8 2.2 -5 5 -5 z" fill="#f7c292" />
            </g>
            <g>
                <path d="M 9 48 c 4.4 0 8 -3.6 8 -8 c 0 4.4 3.6 8 8 8 z" fill="#773e3e" />
            </g>
            <g>
                <path d="M 22 24 c 0 2.8 -2.2 5 -5 5 s -5 -2.2 -5 -5 s 2.2 -5 5 -5 s 5 2.2 5 5 z m -5 2 c 1.1 0 2 -0.9 2 -2 c 0 -1.1 -0.9 -2 -2 -2 c -1.1 0 -2 0.9 -2 2 c 0 1.1 0.9 2 2 2 z" fill="#f7c292" />
            </g>
            <g>
                <path d="M 11 40 c 0 -1.1 -0.9 -2 -2 -2 c -1.1 0 -2 0.9 -2 2 c 0 1.1 0.9 2 2 2 c 1.1 0 2 -0.9 2 -2 z m -2 -5 c 2.8 0 5 2.2 5 5 c 0 2.8 -2.2 5 -5 5 s -5 -2.2 -5 -5 c 0 -2.8 2.2 -5 5 -5 z" fill="#f7c292" />
            </g>
            <g>
                <path d="M 9 32 h 8 h 8 c -4.4 0 -8 3.6 -8 8 c 0 -4.4 -3.6 -8 -8 -8 z" fill="#773e3e" />
            </g>
        </g>
        <g>
            <g>
                <path d="M 48 38 h -11 c -0.6 0 -1 -0.4 -1 -1 s 0.4 -1 1 -1 h 11 c 0.6 0 1 0.4 1 1 s -0.4 1 -1 1 z" fill="#844747" />
            </g>
            <g>
                <path d="M 57 44 h -9 c -0.6 0 -1 -0.4 -1 -1 s 0.4 -1 1 -1 h 9 c 0.6 0 1 0.4 1 1 s -0.4 1 -1 1 z" fill="#844747" />
            </g>
            <g>
                <path d="M 40 22 h -11 c -0.6 0 -1 -0.4 -1 -1 s 0.4 -1 1 -1 h 11 c 0.6 0 1 0.4 1 1 s -0.4 1 -1 1 z" fill="#773e3e" />
            </g>
            <g>
                <path d="M 49 28 h -9 c -0.6 0 -1 -0.4 -1 -1 s 0.4 -1 1 -1 h 9 c 0.6 0 1 0.4 1 1 s -0.4 1 -1 1 z" fill="#773e3e" />
            </g>
        </g>
    </g>
</svg>